HIERARCHY
ROOT Hips
{
	OFFSET 0.000000 0.000000 0.000000
	CHANNELS 6 Xposition Yposition Zposition Xrotation Yrotation Zrotation
	JOINT LeftUpLeg_virtual
	{
		OFFSET 0.000000 0.000000 0.000000
		CHANNELS 3 Xrotation Yrotation Zrotation
		JOINT LeftUpLeg
		{
			OFFSET 10.205400 -3.823500 0.155100
			CHANNELS 3 Xrotation Yrotation Zrotation
			JOINT LeftLeg
			{
				OFFSET 0.708757 -12.982077 0.567790
				CHANNELS 3 Xrotation Yrotation Zrotation
				JOINT LeftFoot
				{
					OFFSET -0.708756 -10.717838 -2.184338
					CHANNELS 3 Xrotation Yrotation Zrotation
					JOINT LeftToeBase
					{
						OFFSET 0.108149 -7.191104 7.560241
						CHANNELS 3 Xrotation Yrotation Zrotation
						JOINT LeftToe_End
						{
							OFFSET 0.070230 0.081724 4.490308
							CHANNELS 3 Xrotation Yrotation Zrotation
							End Site
							{
								OFFSET 0 0 0
							}
						}
					}
				}
			}
		}
	}
	JOINT RightUpLeg_virtual
	{
		OFFSET 0.000000 0.000000 0.000000
		CHANNELS 3 Xrotation Yrotation Zrotation
		JOINT RightUpLeg
		{
			OFFSET -10.205400 -3.823500 0.005500
			CHANNELS 3 Xrotation Yrotation Zrotation
			JOINT RightLeg
			{
				OFFSET -0.708756 -12.982134 0.610632
				CHANNELS 3 Xrotation Yrotation Zrotation
				JOINT RightFoot
				{
					OFFSET 0.708754 -10.717769 -1.945823
					CHANNELS 3 Xrotation Yrotation Zrotation
					JOINT RightToeBase
					{
						OFFSET -0.108140 -7.191069 7.372968
						CHANNELS 3 Xrotation Yrotation Zrotation
						JOINT RightToe_End
						{
							OFFSET -0.070227 0.081735 4.479403
							CHANNELS 3 Xrotation Yrotation Zrotation
							End Site
							{
								OFFSET 0 0 0
							}
						}
					}
				}
			}
		}
	}
	JOINT Spine_virtual
	{
		OFFSET 0.000000 0.000000 0.000000
		CHANNELS 3 Xrotation Yrotation Zrotation
		JOINT Spine
		{
			OFFSET 0.000000 6.876099 0.125700
			CHANNELS 3 Xrotation Yrotation Zrotation
			JOINT Spine1
			{
				OFFSET 0.000000 5.730043 0.104720
				CHANNELS 3 Xrotation Yrotation Zrotation
				JOINT Spine1_split
				{
					OFFSET 0.000000 5.730043 0.104720
					CHANNELS 3 Xrotation Yrotation Zrotation
					JOINT Spine2
					{
						OFFSET 0.000000 5.730043 0.104720
						CHANNELS 3 Xrotation Yrotation Zrotation
						JOINT Neck_virtual
						{
							OFFSET 0.000000 0.000000 0.000000
							CHANNELS 3 Xrotation Yrotation Zrotation
							JOINT Neck
							{
								OFFSET 0.000000 10.314075 0.188496
								CHANNELS 3 Xrotation Yrotation Zrotation
								JOINT Head
								{
									OFFSET 0.000000 7.643700 -2.377400
									CHANNELS 3 Xrotation Yrotation Zrotation
									JOINT HeadTop_End
									{
										OFFSET 0.000000 43.788605 -13.619600
										CHANNELS 3 Xrotation Yrotation Zrotation
										End Site
										{
											OFFSET 0 0 0
										}
									}
								}
							}
						}
						JOINT LeftShoulder_virtual
						{
							OFFSET 0.000000 0.000000 0.000000
							CHANNELS 3 Xrotation Yrotation Zrotation
							JOINT LeftShoulder
							{
								OFFSET 2.196100 4.412489 0.087492
								CHANNELS 3 Xrotation Yrotation Zrotation
								JOINT LeftShoulder_split
								{
									OFFSET 2.196100 4.412489 0.087492
									CHANNELS 3 Xrotation Yrotation Zrotation
									JOINT LeftArm
									{
										OFFSET 8.771219 -2.981674 -0.026999
										CHANNELS 3 Xrotation Yrotation Zrotation
										JOINT LeftForeArm
										{
											OFFSET 8.512804 0.000000 -0.000000
											CHANNELS 3 Xrotation Yrotation Zrotation
											JOINT LeftHand
											{
												OFFSET 18.484802 0.000000 -0.000000
												CHANNELS 3 Xrotation Yrotation Zrotation
												End Site
												{
													OFFSET 0 0 0
												}
											}
										}
									}
								}
							}
						}
						JOINT RightShoulder_virtual
						{
							OFFSET 0.000000 0.000000 0.000000
							CHANNELS 3 Xrotation Yrotation Zrotation
							JOINT RightShoulder
							{
								OFFSET -2.196100 4.412496 0.070690
								CHANNELS 3 Xrotation Yrotation Zrotation
								JOINT RightShoulder_split
								{
									OFFSET -2.196100 4.412496 0.070690
									CHANNELS 3 Xrotation Yrotation Zrotation
									JOINT RightArm
									{
										OFFSET -8.771282 -2.981682 -0.094208
										CHANNELS 3 Xrotation Yrotation Zrotation
										JOINT RightForeArm
										{
											OFFSET -8.494598 0.000000 0.000000
											CHANNELS 3 Xrotation Yrotation Zrotation
											JOINT RightHand
											{
												OFFSET -18.483803 0.000000 0.000001
												CHANNELS 3 Xrotation Yrotation Zrotation
												End Site
												{
													OFFSET 0 0 0
												}
											}
										}
									}
								}
							}
						}
					}
				}
			}
		}
	}
}
MOTION
Frames: 9
Frame Time: 0.03333333
0.634944 30.360588 -0.499651 0.000000 0.000000 0.000000 -6.074719 -42.881574 -3.766410 -38.735738 0.627900 18.109750 41.167340 -15.212389 -0.680354 -0.048589 1.050152 -12.870604 -2.319105 -3.216953 0.802943 0.000000 0.000000 0.000000 -6.074719 -42.881574 -3.766410 7.917375 -14.559248 -20.732563 34.896960 -4.419867 0.609730 -32.427399 -10.398808 23.812447 -1.784932 -0.356705 0.333193 0.000000 0.000000 0.000000 -6.074719 -42.881574 -3.766410 5.853120 4.467720 -1.469863 11.836542 9.037620 -3.083968 0.000000 0.000000 0.000000 0.000000 0.000000 0.000000 11.836541 9.037612 -3.083969 -9.907373 -1.416034 0.452971 -0.529822 20.570694 -0.772809 0.000000 0.000000 0.000000 11.836541 9.037612 -3.083969 1.396590 -0.734484 -7.859820 0.000000 0.000000 0.000000 -14.236653 2.407756 -63.256793 9.875225 -47.538390 5.912051 0.000000 0.000000 0.000000 11.836541 9.037612 -3.083969 1.410929 9.461499 9.792753 0.000000 0.000000 0.000000 1.220069 -24.270684 60.532866 -6.660687 41.858449 8.043884 0.000000 0.000000 0.000000 
0.822595 30.117085 -0.623661 0.000000 0.000000 0.000000 -3.041500 -44.383747 -1.566976 -42.005148 0.618326 18.561121 43.041673 -14.559323 -0.578857 -0.655436 1.221456 -13.055175 -2.120725 -2.940640 0.733029 0.000000 0.000000 0.000000 -3.041500 -44.383747 -1.566976 2.747740 -9.516842 -20.896096 41.011133 -7.027485 0.270693 -34.236006 -10.811103 25.180722 -1.953933 -0.510405 0.392351 0.000000 0.000000 0.000000 -3.041500 -44.383747 -1.566976 6.048577 4.189881 -1.370264 12.224170 8.528420 -2.981042 0.000000 0.000000 0.000000 0.000000 0.000000 0.000000 12.224178 8.528398 -2.981036 -12.706022 0.665371 1.229651 -2.359375 22.874647 -2.642888 0.000000 0.000000 0.000000 12.224178 8.528398 -2.981036 0.265564 -1.356454 -8.721260 0.000000 0.000000 0.000000 -15.849143 -0.272473 -61.599127 11.914448 -42.970674 5.909699 0.000000 0.000000 0.000000 12.224178 8.528398 -2.981036 0.311105 10.730838 8.924885 0.000000 0.000000 0.000000 0.830482 -21.973977 60.244536 -4.994635 43.080001 7.063694 0.000000 0.000000 0.000000 
1.122148 29.712585 -0.836271 0.000000 0.000000 0.000000 1.797180 -45.813361 2.328875 -47.036504 0.328283 18.614624 45.227675 -13.509810 -0.474339 -0.834703 1.376514 -13.394099 -1.899895 -2.633026 0.655206 0.000000 0.000000 0.000000 1.797180 -45.813361 2.328875 -5.436259 -5.549524 -22.162176 48.896252 -7.279710 0.061097 -36.526766 -11.095324 26.062663 -2.254266 -0.829116 0.416664 0.000000 0.000000 0.000000 1.797180 -45.813361 2.328875 6.284008 3.756674 -1.379242 12.699075 7.684463 -3.146811 0.000000 0.000000 0.000000 0.000000 0.000000 0.000000 12.699071 7.684445 -3.146806 -17.369950 3.005141 2.119274 -3.503564 25.295355 -4.286095 0.000000 0.000000 0.000000 12.699071 7.684445 -3.146806 -0.875531 -1.769860 -10.074855 0.000000 0.000000 0.000000 -18.137863 -3.049781 -58.867549 13.873485 -38.764769 5.003155 0.000000 0.000000 0.000000 12.699071 7.684445 -3.146806 -0.838650 13.098411 8.883103 0.000000 0.000000 0.000000 -0.164329 -19.694712 59.041228 -3.226357 44.201487 6.321460 0.000000 0.000000 0.000000 
1.503502 28.885754 -1.108828 0.000000 0.000000 0.000000 8.147768 -46.805712 7.587217 -54.684550 -0.974487 18.544467 49.936271 -12.222860 -0.423912 -1.606193 1.594097 -13.900068 -1.663672 -2.303971 0.571965 0.000000 0.000000 0.000000 8.147768 -46.805712 7.587217 -16.051832 -2.261694 -24.177118 58.992494 -5.386732 -0.334244 -40.002133 -11.582131 26.540737 -2.459454 -1.177279 0.303417 0.000000 0.000000 0.000000 8.147768 -46.805712 7.587217 6.517534 3.230231 -1.469144 13.169148 6.618405 -3.493475 0.000000 0.000000 0.000000 0.000000 0.000000 0.000000 13.169149 6.618413 -3.493483 -22.329844 5.380604 3.884520 -4.739452 27.737866 -6.099994 0.000000 0.000000 0.000000 13.169149 6.618413 -3.493483 -2.086171 -1.814119 -11.473472 0.000000 0.000000 0.000000 -20.799878 -6.411801 -56.372297 15.798253 -34.521921 4.124783 0.000000 0.000000 0.000000 13.169149 6.618413 -3.493483 -1.942408 15.825376 9.625604 0.000000 0.000000 0.000000 -1.897440 -17.221390 57.395726 -0.791308 45.123095 4.765367 0.000000 0.000000 0.000000 
1.931465 27.857544 -1.417570 0.000000 0.000000 0.000000 15.483185 -46.938091 13.719531 -63.557431 -3.088230 17.988239 54.970667 -10.494706 -0.257187 -1.966072 1.788311 -14.951550 -1.419176 -1.963396 0.485803 0.000000 0.000000 0.000000 15.483185 -46.938091 13.719531 -27.347007 0.933461 -26.227091 68.823295 -3.014589 -0.725796 -43.384296 -11.871938 26.579082 -2.548015 -1.589171 0.089461 0.000000 0.000000 0.000000 15.483185 -46.938091 13.719531 6.762238 2.667049 -1.660145 13.656723 5.421478 -4.034898 0.000000 0.000000 0.000000 0.000000 0.000000 0.000000 13.656724 5.421468 -4.034894 -27.810454 7.189905 6.699148 -5.437027 30.189921 -7.887644 0.000000 0.000000 0.000000 13.656724 5.421468 -4.034894 -3.021306 -1.594972 -12.831083 0.000000 0.000000 0.000000 -26.898021 -12.682994 -55.109702 15.744484 -24.195406 3.605382 0.000000 0.000000 0.000000 13.656724 5.421468 -4.034894 -2.731065 17.626319 11.069203 0.000000 0.000000 0.000000 -4.825933 -13.979234 55.763041 0.666421 46.415363 3.278747 0.000000 0.000000 0.000000 
2.352660 26.582012 -1.728561 0.000000 0.000000 0.000000 22.543365 -46.090916 19.624264 -73.290348 -5.683037 17.110578 60.557564 -8.948534 -0.069906 -2.029698 1.951591 -16.341315 -1.206128 -1.621418 0.339498 0.000000 0.000000 0.000000 22.543365 -46.090916 19.624264 -38.250203 4.062987 -29.037969 78.425106 0.617168 -0.135882 -47.149380 -11.624679 25.531706 -2.511129 -2.100959 -0.167388 0.000000 0.000000 0.000000 22.543365 -46.090916 19.624264 7.028262 2.114435 -1.909510 14.177750 4.203556 -4.658904 0.000000 0.000000 0.000000 0.000000 0.000000 0.000000 14.177763 4.203516 -4.658887 -32.472953 7.741355 10.470795 -5.905826 32.942077 -9.809000 0.000000 0.000000 0.000000 14.177763 4.203516 -4.658887 -3.978992 -1.985670 -13.951032 0.000000 0.000000 0.000000 -34.223120 -20.213795 -54.758607 14.733044 -13.019757 2.508595 0.000000 0.000000 0.000000 14.177763 4.203516 -4.658887 -3.795595 18.664496 13.401168 0.000000 0.000000 0.000000 -8.858494 -10.600197 54.198849 1.083638 47.129255 2.267598 0.000000 0.000000 0.000000 
2.707430 25.106438 -1.996372 0.000000 0.000000 0.000000 27.962047 -44.638756 24.151911 -82.959901 -8.260861 16.218916 66.526623 -8.192581 -0.076311 -1.903042 2.047232 -17.655238 -0.996348 -1.287456 0.200519 0.000000 0.000000 0.000000 27.962047 -44.638756 24.151911 -47.548382 6.762477 -32.815415 87.476992 5.786512 0.779888 -51.350916 -10.876256 23.683790 -2.389067 -2.687402 -0.442220 0.000000 0.000000 0.000000 27.962047 -44.638756 24.151911 7.263753 1.629655 -2.130690 14.630175 3.123809 -5.186101 0.000000 0.000000 0.000000 0.000000 0.000000 0.000000 14.630175 3.123812 -5.186113 -34.459810 8.324839 13.312873 -7.678797 34.563629 -10.562541 0.000000 0.000000 0.000000 14.630175 3.123812 -5.186113 -5.846978 -4.101663 -14.454321 0.000000 0.000000 0.000000 -35.158751 -22.320850 -53.156647 14.586554 -16.835006 3.735763 0.000000 0.000000 0.000000 14.630175 3.123812 -5.186113 -6.285586 20.345715 16.638068 0.000000 0.000000 0.000000 -13.036888 -8.289526 52.731840 -1.430668 46.207968 2.621997 0.000000 0.000000 0.000000 
2.938947 23.525669 -2.177439 0.000000 0.000000 0.000000 30.952884 -43.260584 26.681287 -91.450332 -10.917203 15.464115 72.778575 -8.369242 -0.445800 -1.893245 2.204101 -18.792716 -0.858416 -0.971195 -0.046361 0.000000 0.000000 0.000000 30.952884 -43.260584 26.681287 -54.266488 8.568584 -37.813143 95.679182 12.657088 1.721272 -55.875674 -9.265492 20.698253 -2.290628 -3.243212 -0.760936 0.000000 0.000000 0.000000 30.952884 -43.260584 26.681287 7.378965 1.280425 -2.287573 14.843439 2.376008 -5.546513 0.000000 0.000000 0.000000 0.000000 0.000000 0.000000 14.843452 2.376009 -5.546520 -35.703301 9.465424 14.340491 -8.676455 33.655863 -9.278090 0.000000 0.000000 0.000000 14.843452 2.376009 -5.546520 -6.501372 -8.716080 -13.755087 0.000000 0.000000 0.000000 -31.076083 -19.558505 -50.975122 14.562803 -37.069332 9.424012 0.000000 0.000000 0.000000 14.843452 2.376009 -5.546520 -7.868024 23.264635 19.853111 0.000000 0.000000 0.000000 -18.836861 -5.087854 51.171668 -7.666162 41.503706 4.361457 0.000000 0.000000 0.000000 
3.005610 21.999886 -2.237288 0.000000 0.000000 0.000000 31.428217 -42.560975 27.170837 -97.768626 -13.855812 14.575608 79.215359 -9.045747 -0.661932 -2.444507 2.569879 -20.247039 -0.821733 -0.681004 -0.426095 0.000000 0.000000 0.000000 31.428217 -42.560975 27.170837 -56.986693 9.997479 -42.815232 102.736284 19.305381 2.232963 -60.524547 -7.592380 18.008017 -2.336208 -3.590831 -1.217019 0.000000 0.000000 0.000000 31.428217 -42.560975 27.170837 7.402865 1.002028 -2.363173 14.876167 1.872330 -5.699537 0.000000 0.000000 0.000000 0.000000 0.000000 0.000000 14.876145 1.872335 -5.699552 -37.589249 10.716869 14.925123 -6.867575 31.027698 -7.473640 0.000000 0.000000 0.000000 14.876145 1.872335 -5.699552 -6.231459 -14.293797 -11.113510 0.000000 0.000000 0.000000 -28.674671 -17.121029 -52.590223 18.961213 -61.592570 17.954057 0.000000 0.000000 0.000000 14.876145 1.872335 -5.699552 -8.889735 26.189145 22.573922 0.000000 0.000000 0.000000 -21.275189 -2.186199 49.621963 -16.639895 48.377171 8.313635 0.000000 0.000000 0.000000 
